HIERARCHY
ROOT Hips
{
	OFFSET 0.000000 0.000000 0.000000
	CHANNELS 6 Xposition Yposition Zposition Xrotation Yrotation Zrotation
	JOINT LeftUpLeg_virtual
	{
		OFFSET 0.000000 0.000000 0.000000
		CHANNELS 3 Xrotation Yrotation Zrotation
		JOINT LeftUpLeg
		{
			OFFSET 15.427100 -6.655098 0.678600
			CHANNELS 3 Xrotation Yrotation Zrotation
			JOINT LeftLeg
			{
				OFFSET 4.081073 -39.591068 13.024000
				CHANNELS 3 Xrotation Yrotation Zrotation
				JOINT LeftFoot
				{
					OFFSET -4.081074 -37.707932 -15.979700
					CHANNELS 3 Xrotation Yrotation Zrotation
					JOINT LeftToeBase
					{
						OFFSET 5.346399 -15.068900 20.645000
						CHANNELS 3 Xrotation Yrotation Zrotation
						JOINT LeftToe_End
						{
							OFFSET 2.754700 0.931300 11.300900
							CHANNELS 3 Xrotation Yrotation Zrotation
							End Site
							{
								OFFSET 0 0 0
							}
						}
					}
				}
			}
		}
	}
	JOINT RightUpLeg_virtual
	{
		OFFSET 0.000000 0.000000 0.000000
		CHANNELS 3 Xrotation Yrotation Zrotation
		JOINT RightUpLeg
		{
			OFFSET -15.569500 -6.655098 0.678600
			CHANNELS 3 Xrotation Yrotation Zrotation
			JOINT RightLeg
			{
				OFFSET -4.081825 -39.591045 13.023800
				CHANNELS 3 Xrotation Yrotation Zrotation
				JOINT RightFoot
				{
					OFFSET 4.081824 -37.707954 -15.979600
					CHANNELS 3 Xrotation Yrotation Zrotation
					JOINT RightToeBase
					{
						OFFSET -5.346400 -15.068900 20.645000
						CHANNELS 3 Xrotation Yrotation Zrotation
						JOINT RightToe_End
						{
							OFFSET -2.754700 0.931300 11.300900
							CHANNELS 3 Xrotation Yrotation Zrotation
							End Site
							{
								OFFSET 0 0 0
							}
						}
					}
				}
			}
		}
	}
	JOINT Spine_virtual
	{
		OFFSET 0.000000 0.000000 0.000000
		CHANNELS 3 Xrotation Yrotation Zrotation
		JOINT Spine
		{
			OFFSET -0.279200 12.230698 -2.892100
			CHANNELS 3 Xrotation Yrotation Zrotation
			JOINT Spine1
			{
				OFFSET -0.232667 10.192268 -1.242267
				CHANNELS 3 Xrotation Yrotation Zrotation
				JOINT Spine1_split
				{
					OFFSET -0.232667 10.192268 -1.242267
					CHANNELS 3 Xrotation Yrotation Zrotation
					JOINT Spine2
					{
						OFFSET -0.232667 10.192268 -1.242267
						CHANNELS 3 Xrotation Yrotation Zrotation
						JOINT Neck_virtual
						{
							OFFSET 0.000000 0.000000 0.000000
							CHANNELS 3 Xrotation Yrotation Zrotation
							JOINT Neck
							{
								OFFSET -0.418800 17.814194 8.416900
								CHANNELS 3 Xrotation Yrotation Zrotation
								JOINT Head
								{
									OFFSET 0.000000 7.031097 3.806800
									CHANNELS 3 Xrotation Yrotation Zrotation
									JOINT HeadTop_End
									{
										OFFSET 0.000000 24.646606 12.978600
										CHANNELS 3 Xrotation Yrotation Zrotation
										End Site
										{
											OFFSET 0 0 0
										}
									}
								}
							}
						}
						JOINT LeftShoulder_virtual
						{
							OFFSET 0.000000 0.000000 0.000000
							CHANNELS 3 Xrotation Yrotation Zrotation
							JOINT LeftShoulder
							{
								OFFSET 8.476499 7.247704 -3.868750
								CHANNELS 3 Xrotation Yrotation Zrotation
								JOINT LeftShoulder_split
								{
									OFFSET 8.476499 7.247704 -3.868750
									CHANNELS 3 Xrotation Yrotation Zrotation
									JOINT LeftArm
									{
										OFFSET 9.308998 -2.777710 0.208600
										CHANNELS 3 Xrotation Yrotation Zrotation
										JOINT LeftForeArm
										{
											OFFSET 29.972298 0.000000 0.000000
											CHANNELS 3 Xrotation Yrotation Zrotation
											JOINT LeftHand
											{
												OFFSET 26.026505 0.000000 0.000000
												CHANNELS 3 Xrotation Yrotation Zrotation
												End Site
												{
													OFFSET 0 0 0
												}
											}
										}
									}
								}
							}
						}
						JOINT RightShoulder_virtual
						{
							OFFSET 0.000000 0.000000 0.000000
							CHANNELS 3 Xrotation Yrotation Zrotation
							JOINT RightShoulder
							{
								OFFSET -7.570500 7.247704 -3.868750
								CHANNELS 3 Xrotation Yrotation Zrotation
								JOINT RightShoulder_split
								{
									OFFSET -7.570500 7.247704 -3.868750
									CHANNELS 3 Xrotation Yrotation Zrotation
									JOINT RightArm
									{
										OFFSET -9.308998 -2.777710 0.208500
										CHANNELS 3 Xrotation Yrotation Zrotation
										JOINT RightForeArm
										{
											OFFSET -29.972300 0.000000 0.000000
											CHANNELS 3 Xrotation Yrotation Zrotation
											JOINT RightHand
											{
												OFFSET -26.026505 0.000000 0.000000
												CHANNELS 3 Xrotation Yrotation Zrotation
												End Site
												{
													OFFSET 0 0 0
												}
											}
										}
									}
								}
							}
						}
					}
				}
			}
		}
	}
}
MOTION
Frames: 10
Frame Time: 0.03333333
67.881828 92.367775 157.079926 0.000000 0.000000 0.000000 -7.274011 34.729459 10.549546 -10.984026 6.847095 -20.347948 26.626273 -10.581423 -1.218112 25.006088 3.532472 20.339841 -46.856331 0.452058 4.499226 0.000000 0.000000 0.000000 -5.327299 35.817293 9.802760 -1.874020 21.589046 -5.201880 38.721223 -2.952687 0.446766 23.303552 -5.158567 -4.742230 -40.393083 1.791712 4.190130 0.000000 0.000000 0.000000 -6.273543 37.267291 9.967982 4.272312 -1.009032 -6.964493 -1.997092 -1.345442 0.949518 0.827619 0.505643 0.107036 0.000000 0.000000 0.000000 -1.878003 -1.298605 1.308794 -9.010022 3.409241 2.286388 6.270060 6.512438 -2.647284 0.000000 0.000000 0.000000 -2.183314 -0.911498 1.207531 0.853905 8.914259 -3.513325 0.171086 2.922664 -1.256843 6.552278 -8.948198 -68.738669 11.612274 -24.226058 4.388578 0.000000 0.000000 0.000000 -1.789319 -1.185874 1.237314 0.518767 1.846993 3.241582 1.884493 1.601735 -2.644127 -0.372020 7.566421 77.917849 11.606808 15.045621 -3.141696 0.000000 0.000000 0.000000 
70.282639 93.340805 159.642792 0.000000 0.000000 0.000000 -5.817965 36.438984 8.678736 -7.933822 5.078062 -18.775758 24.300106 -11.437115 -0.667195 21.404812 4.737203 22.127559 -43.962130 1.391157 2.797619 0.000000 0.000000 0.000000 -4.402695 37.325573 8.154384 -7.089041 23.673562 -4.051616 34.942288 -0.788577 0.230516 27.464568 -2.482038 -4.358842 -42.641848 0.490417 5.596101 0.000000 0.000000 0.000000 -5.041178 37.935806 8.097669 4.419609 -1.671870 -6.308471 -2.211357 -1.772556 1.073997 0.823352 0.335642 0.216993 0.000000 0.000000 0.000000 -1.906488 -1.666924 1.523403 -8.765932 3.513004 2.642782 6.442779 6.734288 -3.052047 0.000000 0.000000 0.000000 -2.158406 -1.339904 1.405166 0.668757 7.713933 -3.322614 0.313925 3.419807 -1.150711 5.215220 -10.954315 -68.607201 11.726456 -24.763607 4.578482 0.000000 0.000000 0.000000 -1.946122 -1.596587 1.419390 0.261586 0.767622 3.980119 2.275030 1.913768 -2.773814 -0.251446 6.239573 77.347268 11.426555 14.765131 -3.245835 0.000000 0.000000 0.000000 
72.719292 94.263718 162.353241 0.000000 0.000000 0.000000 -4.323866 38.257563 6.692647 -4.695097 4.478654 -16.803314 21.589468 -13.404027 -0.683793 17.926410 4.349839 23.817821 -42.216364 1.760787 1.971787 0.000000 0.000000 0.000000 -3.227977 39.177770 6.232594 -10.814898 22.776331 -3.673617 29.159894 1.515148 0.271024 31.286655 0.863882 -3.413306 -45.177617 -0.426690 5.706587 0.000000 0.000000 0.000000 -3.745382 38.591341 6.136354 4.591342 -2.250139 -5.705707 -2.386269 -2.128601 1.204628 0.896622 0.407363 0.184576 0.000000 0.000000 0.000000 -1.977311 -2.005903 1.670008 -8.597288 3.402196 3.339598 6.354387 6.930956 -3.418285 0.000000 0.000000 0.000000 -2.197262 -1.724586 1.562913 0.510970 6.442644 -3.057814 0.524519 3.781887 -1.031569 3.770614 -12.883738 -68.534296 11.842770 -25.117177 4.802946 0.000000 0.000000 0.000000 -2.040754 -1.974878 1.561171 0.011208 -0.309462 4.865683 2.614499 2.237460 -2.856572 0.132546 4.985664 76.664502 11.316471 14.704919 -3.403404 0.000000 0.000000 0.000000 
75.178596 94.977432 165.043854 0.000000 0.000000 0.000000 -3.025945 40.190787 5.067340 -1.802924 5.335548 -14.796819 19.237895 -16.411416 -1.276038 16.204767 2.375806 25.210300 -42.374627 1.385895 2.470697 0.000000 0.000000 0.000000 -2.090015 41.582048 4.565020 -13.415831 19.043177 -4.265556 22.365028 2.815983 0.825725 33.231097 3.208825 -2.983482 -45.308241 -0.611243 4.763828 0.000000 0.000000 0.000000 -2.825516 39.601799 4.701706 4.866337 -2.777648 -5.440317 -2.457356 -2.424581 1.388287 0.843800 0.713860 0.084410 0.000000 0.000000 0.000000 -2.091582 -2.298296 1.802323 -8.625719 3.069639 4.309194 6.014737 7.118533 -3.659169 0.000000 0.000000 0.000000 -2.290594 -2.045663 1.731742 0.383205 5.225731 -2.589548 0.786445 3.971280 -0.937115 2.318279 -14.550436 -68.565865 11.896224 -25.517413 5.028410 0.000000 0.000000 0.000000 -2.077113 -2.299168 1.709997 -0.210002 -1.320766 5.816059 2.955505 2.552604 -2.861773 0.835047 4.059286 75.843807 11.319743 14.880269 -3.613861 0.000000 0.000000 0.000000 
77.583282 95.280083 167.580933 0.000000 0.000000 0.000000 -2.178434 42.420854 4.127434 0.319117 7.129048 -13.030847 18.171746 -20.323788 -2.112420 16.960575 -0.193562 25.850637 -42.408265 0.833248 3.318663 0.000000 0.000000 0.000000 -1.041182 44.742452 3.450937 -15.481008 13.439646 -5.518194 16.218139 3.224537 1.652242 33.243091 4.117475 -3.247374 -42.535088 -0.010530 3.086692 0.000000 0.000000 0.000000 -2.665603 41.557395 4.165167 5.253359 -3.296877 -5.748691 -2.396529 -2.677318 1.662517 0.824146 1.112765 -0.093966 0.000000 0.000000 0.000000 -2.194782 -2.524812 1.976366 -8.951819 2.515328 5.456370 5.529982 7.265577 -3.731848 0.000000 0.000000 0.000000 -2.365765 -2.285749 1.972708 0.293899 4.150574 -1.846395 1.099552 3.986578 -0.937802 0.869565 -15.823014 -68.679369 11.865908 -26.144291 5.253664 0.000000 0.000000 0.000000 -2.071341 -2.560242 1.918401 -0.404116 -2.210936 6.811751 3.347494 2.891899 -2.785853 1.677604 3.491197 74.924416 11.422860 15.145654 -3.836904 0.000000 0.000000 0.000000 
80.087616 95.223167 170.378204 0.000000 0.000000 0.000000 -1.642394 44.714411 3.944836 2.167264 9.516526 -11.989402 17.749201 -23.791277 -2.896494 17.998131 -2.149370 26.968527 -40.222991 0.747267 3.387808 0.000000 0.000000 0.000000 -0.161286 48.284195 3.004760 -17.689060 7.247102 -6.828394 12.022294 2.992996 2.341991 32.571765 3.818880 -3.308566 -38.772945 0.997580 1.077187 0.000000 0.000000 0.000000 -3.269822 44.372689 4.629398 5.627458 -3.796611 -6.672285 -2.188310 -2.890733 2.029035 0.845623 1.529816 -0.311634 0.000000 0.000000 0.000000 -2.191466 -2.670758 2.234481 -9.550685 1.774952 6.660920 5.071143 7.318344 -3.604577 0.000000 0.000000 0.000000 -2.408440 -2.440450 2.313200 0.237685 3.242582 -0.855116 1.297973 3.792944 -1.039876 -0.589020 -16.554152 -68.875587 11.718487 -26.964154 5.452536 0.000000 0.000000 0.000000 -2.017965 -2.736062 2.212538 -0.559246 -2.939177 7.790684 3.630545 3.062418 -2.562318 2.398581 3.146850 74.013480 11.561222 15.220050 -4.033985 0.000000 0.000000 0.000000 
82.629425 94.905533 173.170349 0.000000 0.000000 0.000000 -1.524574 47.170287 4.450036 4.156695 11.485114 -11.302503 17.570351 -26.414799 -3.312363 18.413804 -3.071052 27.505631 -36.894407 1.157679 2.681848 0.000000 0.000000 0.000000 0.333896 51.832164 3.268354 -19.997897 2.177841 -7.479229 10.109549 2.811228 2.753734 32.209079 2.866883 -2.800380 -35.299664 1.989639 -0.719805 0.000000 0.000000 0.000000 -4.648431 47.612569 5.939417 5.801062 -4.246271 -7.988652 -1.860655 -3.031061 2.461991 0.854834 1.785508 -0.482205 0.000000 0.000000 0.000000 -2.029096 -2.730708 2.571507 -10.181054 0.990368 7.726300 4.841059 7.178644 -3.300188 0.000000 0.000000 0.000000 -2.386758 -2.501482 2.708345 0.202661 2.622960 0.208389 1.320046 3.436903 -1.276379 -1.865917 -16.755566 -69.136022 11.533984 -27.937379 5.617894 0.000000 0.000000 0.000000 -1.914051 -2.813180 2.569958 -0.675584 -3.434300 8.705152 3.659569 3.010960 -2.274867 2.804876 2.872615 73.208843 11.657565 14.814115 -4.168707 0.000000 0.000000 0.000000 
85.097351 94.426193 176.185760 0.000000 0.000000 0.000000 -1.858441 49.661991 5.313992 6.825869 12.177924 -10.791846 17.015270 -28.014004 -3.364547 17.220645 -2.953694 27.274366 -35.090595 1.657624 1.552745 0.000000 0.000000 0.000000 0.509186 55.087644 3.788755 -21.900600 -0.909187 -6.937681 10.648008 3.086335 2.722373 32.543386 1.978626 -1.817234 -33.572811 2.750648 -1.871704 0.000000 0.000000 0.000000 -6.308033 50.780022 7.529016 5.589189 -4.531020 -9.317249 -1.494215 -3.086076 2.881893 0.927023 1.954199 -0.546044 0.000000 0.000000 0.000000 -1.700276 -2.709993 2.933265 -10.668650 0.275439 8.481815 4.963906 6.837332 -2.893251 0.000000 0.000000 0.000000 -2.311180 -2.467268 3.100254 0.170265 2.319115 1.117924 1.221369 2.784465 -1.571797 -2.723871 -16.562621 -69.436687 11.408501 -28.777783 5.738764 0.000000 0.000000 0.000000 -1.754035 -2.800160 2.928885 -0.743957 -3.652116 9.527346 3.411600 2.809283 -1.993372 2.883102 2.557688 72.690247 11.688897 13.888157 -4.245424 0.000000 0.000000 0.000000 
87.601189 93.933029 179.476242 0.000000 0.000000 0.000000 -2.660527 51.839220 6.209202 10.144505 11.468981 -10.007238 16.269859 -28.395530 -3.143975 14.726632 -2.103942 26.871072 -37.477757 1.626852 1.031120 0.000000 0.000000 0.000000 0.328336 57.456508 4.224951 -23.223302 -1.848779 -5.171205 13.116485 3.480398 2.271796 33.788519 1.390124 -0.466107 -34.597398 3.077879 -2.064973 0.000000 0.000000 0.000000 -7.701522 53.241792 8.773827 4.959297 -4.583353 -10.159554 -1.151086 -3.028349 3.224881 0.992236 1.999268 -0.562725 0.000000 0.000000 0.000000 -1.273546 -2.637880 3.271426 -10.856134 -0.209724 8.759771 5.416992 6.360705 -2.481687 0.000000 0.000000 0.000000 -2.207395 -2.365098 3.401201 0.123007 2.373129 1.634862 1.105699 1.935282 -1.735478 -2.905438 -16.123433 -69.781953 11.372108 -29.104467 5.743057 0.000000 0.000000 0.000000 -1.524188 -2.720296 3.209524 -0.770738 -3.558580 10.111949 2.922209 2.521745 -1.759450 2.811662 2.267001 72.552913 11.661078 12.645241 -4.314414 0.000000 0.000000 0.000000 
89.899109 93.512733 182.842697 0.000000 0.000000 0.000000 -4.041700 53.728877 6.817416 13.044066 9.560616 -7.934888 16.283258 -28.430676 -2.733831 13.975683 -1.262988 25.070199 -45.822595 0.538476 2.087238 0.000000 0.000000 0.000000 -0.470335 59.135409 4.474254 -23.963821 -1.083238 -2.674603 16.760357 3.932456 1.603582 35.546050 1.378903 0.607942 -37.667817 2.968129 -1.459056 0.000000 0.000000 0.000000 -8.555941 54.897038 9.122000 4.034866 -4.421376 -10.140356 -0.897487 -2.885349 3.446067 1.028569 1.947708 -0.436239 0.000000 0.000000 0.000000 -0.861603 -2.556023 3.529420 -10.719352 -0.397740 8.490990 6.080099 5.873197 -2.156772 0.000000 0.000000 0.000000 -2.073569 -2.221244 3.565351 0.056536 2.797386 1.603075 1.000499 1.003124 -1.745539 -2.246980 -15.650098 -70.162510 11.470213 -28.564217 5.573994 0.000000 0.000000 0.000000 -1.253803 -2.618814 3.362073 -0.766573 -3.183970 10.363822 2.399566 2.274451 -1.572639 2.785719 2.066901 72.794394 11.599258 11.488464 -4.419280 0.000000 0.000000 0.000000 
